<svg xmlns="http://www.w3.org/2000/svg" viewBox="0 0 245.27 236.38"><g id="ad300bfb-36be-4e83-b5ad-cc40842fc24a_copy" data-name="ad300bfb-36be-4e83-b5ad-cc40842fc24a copy"><path d="M0,236.38V0H245.27V236.38Zm205.3-23.32c1.19-1.05,2.15-1.81,3-2.67,29.45-30,42.31-66.12,35-107.38-9.38-52.58-41.12-87-93.08-99.52C72.11-15.32.41,44.46-.07,121.23-.33,161.84,16.06,194.7,47.73,220c1.46,1.16,3.59,1.5,6,2.47-1.26-2.86-2.06-4.57-2.79-6.31-2.16-5.15-3.88-10.53-6.54-15.41-4.94-9.07-10.54-17.78-15.63-26.78-7.78-13.74-6.35-26.86,3.52-39,2.63-3.24,6.08-5.81,9.26-8.79-.55-.31-1.05-.62-1.58-.9-6.16-3.36-7.16-7.19-5.16-14a93.33,93.33,0,0,0,2.84-16.76c.43-4.09,0-8.27.09-12.4.67-19.49,8.46-35.84,23.6-47.85,9-7.1,19.32-12.5,29.29-18.25a51.7,51.7,0,0,1,13.46-5.43c14.18-3.43,28.46-2.34,42.75-.18,12.12,1.84,20.68,8.35,26.71,18.77A104.5,104.5,0,0,1,187.08,73.9c1.19,15.07-.89,29.88-4.33,44.51-.69,2.94-.3,4.44,2.62,5.94,12.09,6.19,17.69,17.76,14,30.8-2,7.11-5.72,13.87-9.41,20.37-3.59,6.33-6,12.78-5.62,20a6.19,6.19,0,0,0,1.88,4.27C192.37,204.35,198.76,208.57,205.3,213.06ZM93.3,74.81l.83-.35a23.87,23.87,0,0,1,1.64,2.62c1.9,4.16.75,6.06-3.71,7-3,.62-5.5,2.39-5.51,5.84a24.05,24.05,0,0,0,1,7.85c2.56,7.32,8.5,8.78,14.64,4a28.89,28.89,0,0,1,6.42-4.07c4.68-2,8.26.18,9,5.2a36.57,36.57,0,0,1,.14,6.54c-.15,3.58,2.39,3.79,4.87,4,2.7.2,3.23-1.57,3.06-3.8,0-.73-.07-1.46-.1-2.18-.1-2.36.64-4.21,3.31-4.29s4.72,1,4.87,4.13c.08,1.58.4,3.15.42,4.72,0,2.76,1.79,3,3.94,3,2.32,0,2.4-1.54,2.3-3.25-.06-1.21,0-2.44-.1-3.64-.19-2.31.56-3.9,3.08-4s4.18,1.09,4.18,3.9a6.77,6.77,0,0,0,.2,2.87,15.38,15.38,0,0,0,2.39,2.87,13.77,13.77,0,0,0,1.53-3.32c.17-1-.71-2.26-.42-3.18.41-1.3,1.34-3.21,2.29-3.37s2.65,1.11,3.55,2.15c.73.83.63,2.35,1.21,3.38.36.65,1.31,1,2,1.45.22-.89.82-1.9.58-2.64-.56-1.71-2-3.23-2.23-4.94-.33-2.36-.64-5.23.38-7.17,1.37-2.6,4.37-2,6.89-1,3.36,1.32,5.46,0,6.41-3.25a22.48,22.48,0,0,0,.85-5.72c.1-4.09-.72-4.79-4.92-4.79-4.6,0-6-1.52-5.32-6,.55-3.85,1.28-7.67,1.67-11.53.74-7.17-.07-14.1-4-20.37-5.38-8.6-15.47-9-21.49-1-.46.61-1,1.19-1.43,1.79l-.53-.3,2.4-5.64H118.91l2.65,5.26c-2.91-2.13-5-3.77-7.23-5.27-5.87-4-13-3.62-18.15,1.11-5.89,5.36-7.3,12.34-6.81,19.95.15,2.28,0,4.59.09,6.88.24,4.24.52,8.47,1,12.68.09.79,1.25,1.45,1.91,2.17a9.8,9.8,0,0,0,1.16-2.7A17.15,17.15,0,0,0,93.3,74.81Zm24.78,68.71a26.2,26.2,0,0,1-1.21,4.72c-.51,1.08-1.54,2.51-2.5,2.64a3.9,3.9,0,0,1-3.19-1.78,17.2,17.2,0,0,1-2-6.53c-.65-13.53-2.74-27.14,1.52-40.49.08-.26-.18-.62-.71-2.27-1.37,2.35-2.59,3.75-3,5.37-1.6,5.6-2.37,11.49-4.48,16.86-4.07,10.33-5.33,20.34.37,30.42.54.95,1,2,1.41,3,7.17,15.91,27.51,26.48,44.71,23.29a9.55,9.55,0,0,0,7.06-5.11c4.57-8.19,4.74-17.15,5.3-26.3-3.32.35-5.44,1.15-4.66,5a9.12,9.12,0,0,1-.41,5.34,4.74,4.74,0,0,1-3.71,2.36c-1.21-.09-2.54-1.69-3.33-2.93-.5-.78-.16-2.13-.11-3.22.08-1.82-.28-3.08-2.55-3-2,.09-2.85.84-2.82,2.87a15.13,15.13,0,0,1-.48,5c-.35,1-1.87,2.48-2.59,2.33a4.62,4.62,0,0,1-2.8-2.6c-.56-1.4-.34-3.11-.5-4.68-.42-4-1.59-4.85-6.11-4.06.11,1.85.19,3.75.33,5.65s-.53,3.43-2.74,3.41-3.93-.66-4-3.21c-.06-1.57.15-3.15.15-4.73C125,145.78,124,144.63,118.08,143.52Zm58.77-17.35c.81-3.77,1.69-7.52,2.41-11.31,3.2-16.89,5.72-33.78,1.82-51-2.67-11.75-5.37-23.47-11.66-34A28.05,28.05,0,0,0,149.6,16.09a10.07,10.07,0,0,0,2.71,1.48A29,29,0,0,1,169,33a126.75,126.75,0,0,1,12,46.3C182.12,95,179.2,110.48,176.85,126.17ZM95,181.52l.71-.41c-3.4-9.21-6.66-18.48-10.24-27.62-3.41-8.71-8.09-16.67-15.86-22.26-2.44-1.75-5.35-2.85-8-4.25L61,128c9.49,4.85,15.41,12.88,19.72,22.19,2.76,5.95,5,12.15,7.66,18.14C90.39,172.78,92.78,177.12,95,181.52ZM154.63,149a17.45,17.45,0,0,0-.55-4.07c-2.44-6.3-5.17-12.49-7.51-18.83a96.71,96.71,0,0,1-2.54-10C140.39,123,145.81,141.36,154.63,149ZM179,128c7.1,3.29,13.42,7.37,15.94,15.33C194.19,135.51,185.24,126.74,179,128Z" style="fill:#313543"/><path d="M154.63,26.53S125,5.76,95.71,32.46c0,0-41.62,53,16.16,143.08,0,0,11.56,14.84,20.15,16.33s10.87-1.78,10.87-1.78,5.13,1.55,17-14.19c0,0,7.71-19.75,4.45-32.56,0,0,7.4-20.32,4.44-43.53,0,0,6.82,0,8-6.85,0,0,2.08-6.36,0-10.62,0,0,2.39-4.89-6.21-7.09,0,0,.18-38.71-15.92-39.71,0,0-5.58-2.79-17.8-3.08,0,0-11.14-9,2.84-9.37C139.67,23.09,140.23,20.1,154.63,26.53Z" style="fill:#0c0c0c"/><path d="M205.3,213.06c-6.54-4.49-12.93-8.71-19.1-13.23a6.19,6.19,0,0,1-1.88-4.27c-.35-7.26,2-13.71,5.62-20,3.69-6.5,7.38-13.26,9.41-20.37,3.71-13-1.89-24.61-14-30.8-2.92-1.5-3.31-3-2.62-5.94,3.44-14.63,5.52-29.44,4.33-44.51a104.5,104.5,0,0,0-13.49-44.69c-6-10.42-14.59-16.93-26.71-18.77-14.29-2.16-28.57-3.25-42.75.18a51.7,51.7,0,0,0-13.46,5.43C80.7,21.8,70.34,27.2,61.38,34.3c-15.14,12-22.93,28.36-23.6,47.85-.14,4.13.34,8.31-.09,12.4a93.33,93.33,0,0,1-2.84,16.76c-2,6.78-1,10.61,5.16,14,.53.28,1,.59,1.58.9-3.18,3-6.63,5.55-9.26,8.79-9.87,12.11-11.3,25.23-3.52,39,5.09,9,10.69,17.71,15.63,26.78C47.1,205.6,48.82,211,51,216.13c.73,1.74,1.53,3.45,2.79,6.31-2.45-1-4.58-1.31-6-2.47C16.06,194.7-.33,161.84-.07,121.23.41,44.46,72.11-15.32,150.16,3.49c52,12.52,83.7,46.94,93.08,99.52,7.36,41.26-5.5,77.38-35,107.38C207.45,211.25,206.49,212,205.3,213.06Z" style="fill:#93dcfe"/><path d="M93.3,74.81a17.15,17.15,0,0,1,.24,3.55,9.8,9.8,0,0,1-1.16,2.7c-.66-.72-1.82-1.38-1.91-2.17-.49-4.21-.77-8.44-1-12.68-.13-2.29.06-4.6-.09-6.88-.49-7.61.92-14.59,6.81-19.95,5.2-4.73,12.28-5.09,18.15-1.11,2.21,1.5,4.32,3.14,7.23,5.27l-2.65-5.26h20.71l-2.4,5.64.53.3c.48-.6,1-1.18,1.43-1.79,6-8,16.11-7.6,21.49,1,3.91,6.27,4.72,13.2,4,20.37-.39,3.86-1.12,7.68-1.67,11.53-.63,4.48.72,6,5.32,6,4.2,0,5,.7,4.92,4.79a22.48,22.48,0,0,1-.85,5.72c-1,3.2-3.05,4.57-6.41,3.25-2.52-1-5.52-1.58-6.89,1-1,1.94-.71,4.81-.38,7.17.25,1.71,1.67,3.23,2.23,4.94.24.74-.36,1.75-.58,2.64-.69-.47-1.64-.8-2-1.45-.58-1-.48-2.55-1.21-3.38-.9-1-2.48-2.32-3.55-2.15s-1.88,2.07-2.29,3.37c-.29.92.59,2.17.42,3.18a13.77,13.77,0,0,1-1.53,3.32,15.38,15.38,0,0,1-2.39-2.87,6.77,6.77,0,0,1-.2-2.87c0-2.81-1.61-4-4.18-3.9s-3.27,1.65-3.08,4c.1,1.2,0,2.43.1,3.64.1,1.71,0,3.21-2.3,3.25-2.15,0-3.9-.25-3.94-3,0-1.57-.34-3.14-.42-4.72-.15-3.15-2.14-4.22-4.87-4.13s-3.41,1.93-3.31,4.29c0,.72,0,1.45.1,2.18.17,2.23-.36,4-3.06,3.8-2.48-.18-5-.39-4.87-4a36.57,36.57,0,0,0-.14-6.54c-.71-5-4.29-7.16-9-5.2a28.89,28.89,0,0,0-6.42,4.07c-6.14,4.79-12.08,3.33-14.64-4a24.05,24.05,0,0,1-1-7.85c0-3.45,2.46-5.22,5.51-5.84,4.46-.91,5.61-2.81,3.71-7a23.87,23.87,0,0,0-1.64-2.62Zm37.22-13-.29,0a10.92,10.92,0,0,1-.56,3.13c-.76,1.52-1.91,4.06-2.82,4a6.54,6.54,0,0,1-4.48-2.84c-1.7-2.63-2.6-5.75-4.08-8.53s-3-5.91-5.12-8.32a7,7,0,0,0-8.94-1.75C100.67,49.36,99,53,99.53,58.15c.38,3.62,3.74,2.74,5.82,3.78a3.16,3.16,0,0,0,.7.21c7.57,2,7.66,2.29,2.39,8.1-5.71,6.28-5.66,7.9.48,13.91.78.77,1.56,1.54,2.4,2.24,3.06,2.57,7.22,2.53,9.77-.55a19.55,19.55,0,0,0,3.27-6.37c1-3.13.17-7.15,4.76-8.36.67-.18,1.25-1.8,1.34-2.8C130.66,66.18,130.52,64,130.52,61.85Zm12.59,9.23c2.09,3.3,3.59,6.42,5.76,9,2.77,3.23,5.75,3,8.15-.37a21.15,21.15,0,0,0,3.51-7.47,40.93,40.93,0,0,0-1.83-23.26c-1-2.64-2.41-4.42-5.34-4.71s-5.65.61-6.79,3.22a46.42,46.42,0,0,0-2.69,10c-.4,2.12,0,4.38-.27,6.53-.81,5.58-3.09,6.48-7.55,3.3C137.76,69.83,139.29,72.68,143.11,71.08Zm3,28.4c3.25-.87,3.79-3.07,2.92-5.41a53.77,53.77,0,0,0-4.6-9.47c-.5-.82-3.54-1.26-3.75-.9a69.56,69.56,0,0,0-5.73,11.53c-.83,2.36,1.41,3.52,3.64,4s2.93-1,3.45-2.71a34.12,34.12,0,0,1,1.42-3.26ZM128.27,82c-1.75,2.7-2.83,5.29-4.71,7s-4.59,2.49-6.81,3.62C123.22,94.22,127.49,90.6,128.27,82Zm11.4-1.7L134.6,69C132.77,74.57,135.24,79.77,139.67,80.28Z" style="fill:#fff"/><path d="M118.08,143.52c5.9,1.11,6.93,2.26,6.91,7.38,0,1.58-.21,3.16-.15,4.73.1,2.55,2,3.19,4,3.21s2.89-1.4,2.74-3.41-.22-3.8-.33-5.65c4.52-.79,5.69.05,6.11,4.06.16,1.57-.06,3.28.5,4.68a4.62,4.62,0,0,0,2.8,2.6c.72.15,2.24-1.31,2.59-2.33a15.13,15.13,0,0,0,.48-5c0-2,.85-2.78,2.82-2.87,2.27-.11,2.63,1.15,2.55,3,0,1.09-.39,2.44.11,3.22.79,1.24,2.12,2.84,3.33,2.93a4.74,4.74,0,0,0,3.71-2.36,9.12,9.12,0,0,0,.41-5.34c-.78-3.84,1.34-4.64,4.66-5-.56,9.15-.73,18.11-5.3,26.3a9.55,9.55,0,0,1-7.06,5.11c-17.2,3.19-37.54-7.38-44.71-23.29-.44-1-.87-2-1.41-3-5.7-10.08-4.44-20.09-.37-30.42,2.11-5.37,2.88-11.26,4.48-16.86.46-1.62,1.68-3,3-5.37.53,1.65.79,2,.71,2.27-4.26,13.35-2.17,27-1.52,40.49a17.2,17.2,0,0,0,2,6.53,3.9,3.9,0,0,0,3.19,1.78c1-.13,2-1.56,2.5-2.64A26.2,26.2,0,0,0,118.08,143.52Z" style="fill:#fff"/><path d="M176.85,126.17c2.35-15.69,5.27-31.19,4.22-46.91A126.75,126.75,0,0,0,169,33a29,29,0,0,0-16.73-15.39,10.07,10.07,0,0,1-2.71-1.48,28.05,28.05,0,0,1,19.82,13.85c6.29,10.49,9,22.21,11.66,34,3.9,17.18,1.38,34.07-1.82,51C178.54,118.65,177.66,122.4,176.85,126.17Z" style="fill:#fff"/><path d="M95,181.52c-2.22-4.4-4.61-8.74-6.64-13.23-2.69-6-4.9-12.19-7.66-18.14C76.39,140.84,70.47,132.81,61,128l.59-1c2.69,1.4,5.6,2.5,8,4.25,7.77,5.59,12.45,13.55,15.86,22.26,3.58,9.14,6.84,18.41,10.24,27.62Z" style="fill:#c8c8c8"/><path d="M154.63,149c-8.82-7.66-14.24-26-10.6-32.9a96.71,96.71,0,0,0,2.54,10c2.34,6.34,5.07,12.53,7.51,18.83A17.45,17.45,0,0,1,154.63,149Z" style="fill:#fff"/><path d="M179,128c6.23-1.27,15.18,7.5,15.94,15.33C192.43,135.38,186.11,131.3,179,128Z" style="fill:#fff"/><path d="M130.52,61.85c0,2.16.14,4.33-.06,6.46-.09,1-.67,2.62-1.34,2.8-4.59,1.21-3.72,5.23-4.76,8.36a19.55,19.55,0,0,1-3.27,6.37c-2.55,3.08-6.71,3.12-9.77.55-.84-.7-1.62-1.47-2.4-2.24-6.14-6-6.19-7.63-.48-13.91,5.27-5.81,5.18-6.14-2.39-8.1a3.16,3.16,0,0,1-.7-.21c-2.08-1-5.44-.16-5.82-3.78-.52-5.13,1.14-8.79,4.7-10.61a7,7,0,0,1,8.94,1.75c2.13,2.41,3.6,5.44,5.12,8.32s2.38,5.9,4.08,8.53A6.54,6.54,0,0,0,126.85,69c.91,0,2.06-2.51,2.82-4a10.92,10.92,0,0,0,.56-3.13Z"/><path d="M143.11,71.08c-3.82,1.6-5.35-1.25-7.05-3.81,4.46,3.18,6.74,2.28,7.55-3.3.3-2.15-.13-4.41.27-6.53a46.42,46.42,0,0,1,2.69-10c1.14-2.61,3.86-3.52,6.79-3.22s4.35,2.07,5.34,4.71a40.93,40.93,0,0,1,1.83,23.26A21.15,21.15,0,0,1,157,79.66c-2.4,3.42-5.38,3.6-8.15.37C146.7,77.5,145.2,74.38,143.11,71.08Zm.84-1.43,9-8.58-6.48-2.85C145.62,62,144.87,65.49,144,69.65Z"/><path d="M146.07,99.48l-2.65-6.18A34.12,34.12,0,0,0,142,96.56c-.52,1.75-1.08,3.27-3.45,2.71s-4.47-1.68-3.64-4a69.56,69.56,0,0,1,5.73-11.53c.21-.36,3.25.08,3.75.9a53.77,53.77,0,0,1,4.6,9.47C149.86,96.41,149.32,98.61,146.07,99.48Z"/><path d="M128.27,82c-.78,8.62-5.05,12.24-11.52,10.6,2.22-1.13,4.92-1.92,6.81-3.62S126.52,84.68,128.27,82Z"/><path d="M139.67,80.28c-4.43-.51-6.9-5.71-5.07-11.27Z"/><path d="M144,69.65c.92-4.16,1.67-7.62,2.51-11.43l6.48,2.85Z" style="fill:#fff"/><path d="M67.13,87.47s-14.22-61.83,43-74c0,0,13.93-2.08,35.56,0,0,0,15.54,2.08,23.77,16.44,0,0,16.51,30.29,13.26,61.59,0,0-.36,31.6-4.48,33.08l4.12-1.48s-.95.15.74-7c0,0,13.08-39.43-7.27-82.88,0,0-6.34-20.79-28.91-22.8,0,0-36-10.32-64.69,10.44C82.19,20.88,55.28,39.08,67.13,87.47Z" style="fill:#0c0c0c"/><path d="M64.12,69s-3.8-3.07-5.58,16.49c0,0-5.33-10.12,4.44-22.25Z" style="fill:#0c0c0c"/><path d="M59.13,124.61S52,105.35,52.91,77.5c0,0-4.6,24.57-.08,37.47,0,0-3.59,5.49-9.16,6.08,0,0-4.67,1.92-6.46-4.93,0,0,6.51-3.45,5-24.59,0,0-2.28-43.63,29.83-58.91l6.28-9.53S41.26,40.16,38.53,73.85c0,0-.57,18.68-1.07,22.83,0,0-.81,6.34-3.42,18.29,0,0-6.32,8.16,9.63,11.2Z" style="fill:#0c0c0c"/><path d="M57.63,119.74s11.58,3.31,18.09,12.83c0,0,16,17.81,16.6,33.81,0,0,15.15,21.93,22.69,23.41a25.88,25.88,0,0,0,17,2.08v3.26s-18.31,4.81-33-15.85c0,0-11-31.64-27.66-46.71,0,0-7.33-6.47-9.78-5.59S57.63,119.74,57.63,119.74Z" style="fill:#0c0c0c"/><path d="M139.62,38.28s-15.46-3.67-20.71,0l2.65,5.26s-12.09-15.23-25.85-5.45c0,0-10.89,7.36-6.25,28.12l-.11,14.07s4.34,5.47,4-5.47c0,0,5.22,1.3,2,8.07,0,0,1.52,4.1-8.72,2.62,0,0-.17,13.67,3.11,16.12,0,0,6.54,7.85,19-4L107,105.18s-5.63,22.7-6.74,21.8c0,0-3.42,12.44-1.23,13.92a54.54,54.54,0,0,0,8,19.43s13.31,23,42,18.38l-.54,7.53s-14.14,12.26-25.86,0c0,0-27.37-28.69-33.83-73,0,0-13.31-35.73-2.21-62.26,0,0,7.85-23.16,15-23.22S139.62,38.28,139.62,38.28Z" style="fill:#0f0f0f"/><path d="M179.53,126.17s-13.73,35.54-17,49.73c0,0-3-.42-3.26,24.51H156l1.2-21.13s20.6-49.47,19.63-53.11Z" style="fill:#0c0c0c"/><path d="M124.61,46.64s6.86,11.69,5.06,18.31-6.3,4-8.84-1.7c0,0,2.88,6,3.78,3,0,0,1.71,4.43,3.66,0C128.27,66.24,131.71,65.56,124.61,46.64Z" style="fill:#191919"/><path d="M130,57.74s3.53,18.55-3,16.63c0,0,.6,16.46-13.92,13.5,0,0,10,2.13,12.34-14.89,0,0-.74-2,4.57-1.71Z" style="fill:#5f636f"/><path d="M138,69.38s.89,4.13,5,4c0,0,3.56,8.46,10.08,8.16,0,0-9.48-4-7.56-11.4C145.5,70.13,138.24,72.35,138,69.38Z" style="fill:#5f636f"/></g></svg>