<?xml version="1.0" encoding="utf-8"?>
<!-- Generator: Adobe Illustrator 25.2.1, SVG Export Plug-In . SVG Version: 6.00 Build 0)  -->
<svg version="1.1" id="Layer_1" xmlns="http://www.w3.org/2000/svg" xmlns:xlink="http://www.w3.org/1999/xlink" x="0px" y="0px"
	 viewBox="0 0 229.01 163.71" style="enable-background:new 0 0 229.01 163.71;" xml:space="preserve">
<style type="text/css">
	.st0{fill-rule:evenodd;clip-rule:evenodd;fill:#FFFFFF;}
	.st1{fill:#FFFFFF;}
</style>
<g>
	<g>
		<g>
			<path class="st0" d="M179.96,26.79c-0.65-2.02,1.76-3.26,1.74-5.61C181.83,22.69,182.61,26.72,179.96,26.79z"/>
			<path class="st0" d="M170.37,81.01c1.15,0.02-0.06,2.25,0,3.11C169.82,83.14,170.43,81.96,170.37,81.01z"/>
			<path class="st0" d="M178.51,92.53c0.85,0.03,0.52,2.66-0.29,2.8C178.37,93.79,178.34,93.67,178.51,92.53z"/>
			<path class="st0" d="M183.45,98.45c1.01,0.57,0.84,1.9,0.58,3.11c-1.08-0.08,0.09-2.58-1.16-2.49
				C182.95,98.74,183.45,98.86,183.45,98.45z"/>
			<path class="st0" d="M183.74,102.19c0.87,0.65-0.04,2.01-0.58,2.18C182.31,103.73,183.56,102.74,183.74,102.19z"/>
			<path class="st0" d="M173.57,103.75c1.02,0.17,0.47,1.81,0.29,2.49C173.27,105.31,173.22,104.7,173.57,103.75z"/>
			<path class="st0" d="M183.45,106.24c0.51,0.07,0.66,0.54,0.58,1.25c-0.54,0.3-0.97-0.93-1.16,0
				C181.82,106.92,183.28,106.5,183.45,106.24z"/>
			<path class="st0" d="M182.29,109.35c0.82-0.26,0.75,0.44,1.45,0.31c0,0.52,0,1.04,0,1.56c-0.93-0.18-0.9,0.59-1.45,0
				C182.55,110.31,182.55,110.26,182.29,109.35z"/>
			<path class="st0" d="M173.28,112.47c0.28,0.01,0.22,0.38,0.29,0.62c0.5,0.12,0.55-0.24,0.58-0.62c0.03,1.5-0.03,2.62-0.29,4.98
				C172.94,116.57,173.38,114.23,173.28,112.47z"/>
			<path class="st0" d="M183.74,120.57c-0.03,0.8-0.06,1.61-0.87,1.56C183.38,121.66,182.32,120.52,183.74,120.57z"/>
			<path class="st0" d="M183.45,124.31c0.76-0.1,0.95,0.44,0.87,1.25C183.56,125.64,183.37,125.12,183.45,124.31z"/>
			<path class="st0" d="M183.74,126.8c0.74,0.3,0.83,2.23-0.29,2.18C183.51,127.57,184.18,128.28,183.74,126.8z"/>
			<path class="st0" d="M192.33,20.79c-0.25,1.86-0.47,2.92-2.74,6.61c-0.23,0.37-0.58,0.66-0.95,0.91c-0.2,0.12-0.4,0.23-0.58,0.34
				c-1.18,0.6-0.16,3.88,0.12,4.77c0.89,0.66,3.59,1.31,5.57,2.38c0.19,0.1,0.71-0.41,0.89-0.3c1.19,0.72,3.19,3.16,3.32,4.51
				c0.03,0.33,0.27,1,0.31,1.15c0.24-0.1,2.45,9.15,2.63,9.83c0.27,1.02,0.41,1.75,0.71,2.49c0.42,1.03,1.04,2.01,1.61,3.11
				c0.9,1.73,1.64,2.68,2.66,4.34c1.25,2.03,2.17,3.29,3.66,5.23c1.79,2.34,2.78,3.46,4.3,5.47c0.57,0.77,1.25,4.07,1.25,5.01
				c0,0.41-0.23,2.06-0.61,2.71c-1.13,1.93-1.09,2.03-1.93,2.25c-0.24,0.02-0.11-0.52-0.11-1.08c0-0.56,0.33-0.99,0.27-1.52
				c-0.03-0.31-0.93-0.34-0.99-0.64c-0.17-1.02-0.2-4.44-0.48-4.6c-4.51-4.92-9.16-8.88-12.86-15.08c-1.74-2.38-2.76-5.36-3.87-8.19
				c-0.56-1.74-0.67-3.96-0.86-4.25c-0.46-0.68-0.14,1.11-1.78,6.77c-0.01,0.05-1.03,2.98,0.76,6.31c1.57,1.94,2.09,2.68,2.91,3.82
				c1.12,1.59,3.39,4.17,2.48,4.74c0,0-6.12-0.42-7.89-2.27c-4.7,3.32-18.76,4.73-19.62,4.12c-0.99-0.69,4.38-8.4,6.83-11.28
				c-0.87-3.94-1.26-8.72-2.24-14.42c-2.11,5.69-5.04,12.92-5.61,14.73c-0.38,1.23-0.88,2.1-1.57,3.65
				c-1.54,3.45-2.55,9.05-4.24,10.37c0.38,2.01,0.51,1.97,0.51,5.09c-0.55,0.54-1.07,0.63-1.13,1.09c-0.21,1.58-0.59,4.18-1.42,3.58
				c-0.77-0.56-0.67-0.48-0.95-0.97c-0.69-1.19-1.61-1.91-1.36-4.29c0.29-2.79-0.04-1.42,0.8-5.16c0.15-6.3,2.5-11.33,4.13-17.41
				c2.4-5.25,3.41-10.96,5.2-15.96c0,0,0.23-0.64,0.3-1.3c0.31-1.16,2.33-3.11,3.9-3.63c0.22-0.07,0.71,0.59,0.94,0.53
				c3.1-0.95,6.83-1.87,6.8-5.18c-0.09-0.84-1.22-0.56-1.45-1.24c-0.86-3.92-2.15-6.89-2.86-11.11c-0.01-0.08-0.51-1.53-0.32-1.8
				c0.11-0.15,1.63-0.03,1.77-0.21c0.98-1.23,1.93-2.13,2.1-2.46c0.11-0.21,0.05-1.89,0.23-1.63c0.18,0.25,0.97,1.05,1.11,1.04
				c1.66-0.21,2.34-0.13,3.45-0.6c0.26-0.11,0.56-1,0.95-1.47c0,0,0.7,1.49,0.98,1.57c1.05,0.3,1.89,0.4,2.84,0.53
				c0.32,0.04,1.05,0.24,1.31,0.05c0.39-0.28,0.79-0.66,0.86-0.58c0.11,0.11,0.64,4.04,0.31,7.22c-0.02,0.22-0.17,0.77-0.17,1
				C192.5,19.95,192.32,20.32,192.33,20.79z M180.53,28.25"/>
			<path class="st0" d="M196.82,93.46c1.53,9.89,2.4,20.48,2.32,32.09c0.13,0.66,0.65,10.24,1.74,13.39
				c0.72,1.88,5.45,11.93,4.94,11.84c-0.12,1.12-3.25,1.4-4.36,1.46c0.04-0.36-1.03-5.62-3.52-11.16
				c-0.22-0.95,1.29,5.79,1.38,11.78c-2.89-0.35-8.22-0.12-11.79,1.14c-1.66,0.12-4.01-0.39-4.97-1.03
				c-3.01,0.33-6.94,0.89-8.44-0.94c-4.8,2.12-8.79-0.64-11.33-2.8c-0.99,0.13-2.61,0.71-3.48,0c0.34-9.93,1.67-27.06,1.65-35.48
				c-0.01-3.08,0.17-9.8-0.34-14.48c-0.01-0.8-1.26-14.06-0.41-16.94c0.96,0.1,3.17,6.45,3.42,10.19c0.1,1.44,0.23,4.23,0.31,5.92
				c0.63,13.35-0.77,32.88-1.14,39.25c1.99-7.43,2.04-14.43,2.66-22.74c-0.05-0.36,0,0-0.04-0.94c0-1.14,0.01-3.36,0-4.36
				c0.09-1.88,0-4.27,0-5.92c0.44-3.58,4.43-28.36,6.73-36.57c0.79-0.28,10.42-3.41,17.4-2.99c3.84,0.8,6.41,1.43,7.14,1.87
				c2.98,3.7,4.64,14.04,5.94,20.56c0.42,2.08,3.16,21.71,3.2,23.76c0.01,0.63-0.23,4.87,0.16,8.35
				c1.29,11.82,7.38,28.26,5.25,28.55c-0.82,0.11-5.08-9.38-6.32-23.8c-2.27-28.88-2.21-28.82-2.54-30.17
				c-0.53-2.11-2.97-13.62-4.39-16.97c1.33,6.3,1.83,12.57,2.32,18.69c0.21,2.56,1.79,6.8,1.65,9.35
				c-0.05,0.91,0.73,11.68,1.47,17.77c2.03,16.68,0.22,20.43-0.61,14.94c-0.26-0.42-1.5-13.09-1.65-13.72
				c-0.15-0.64-0.24-1.36-0.28-2.17c-0.07-1.53-0.12-3.25-0.18-3.74c-0.15-1.34-0.3-6.96-0.41-8.1
				c-0.99-10.53-3.24-22.57-4.94-33.96C194.83,80.36,197.2,93.47,196.82,93.46z"/>
			<path class="st0" d="M195.92,67.52"/>
			<path class="st0" d="M173.71,67.62"/>
			<path class="st0" d="M209.86,129.17c0,0,5.21-45.91,4.65-47.86c-1.41,3.29-4.3,12.14-5.48,22.44
				c-1.46,13.53-0.78,12.96-0.93,15.79C207.79,123.9,209.93,130.56,209.86,129.17z"/>
		</g>
		<path class="st0" d="M206.25,141.45c0.77,2.42,2.58,5.86,3.7,7.92C208.81,148.82,202,140.16,206.25,141.45z"/>
	</g>
	<g>
		<g>
			<path class="st1" d="M16.91,89.54V60.18h16.6v3.22H20.74v10.12h11.15v2.95H20.74v13.06H16.91z"/>
			<path class="st1" d="M37.9,60.18h3.83v18.87c0,2.75,0.27,4.6,0.8,5.54c0.54,0.94,1.37,1.65,2.51,2.15
				c1.14,0.49,2.41,0.74,3.81,0.74c1.34,0,2.53-0.25,3.57-0.74c1.04-0.5,1.82-1.27,2.33-2.34c0.51-1.07,0.77-3.29,0.77-6.68V60.18
				h3.53V78.7c0,3.43-0.39,5.84-1.18,7.23c-0.79,1.38-1.93,2.48-3.42,3.29c-1.49,0.8-3.37,1.21-5.63,1.21
				c-2.09,0-4.01-0.32-5.75-0.97c-1.74-0.64-3.04-1.65-3.89-3c-0.85-1.36-1.28-3.66-1.28-6.89V60.18z"/>
			<path class="st1" d="M67.68,89.54h-3.53V60.18h3.8l13.4,20.87l1.22,2.32l-0.08-2.3V60.18h3.53v29.36h-3.75L68.85,68.58
				l-1.24-2.36l0.08,2.36V89.54z"/>
			<path class="st1" d="M91.61,89.54V60.18h8.11c3.95,0,6.83,0.54,8.67,1.6c1.83,1.07,3.26,2.71,4.29,4.91
				c1.03,2.2,1.54,4.88,1.54,8.04c0,2.96-0.46,5.53-1.39,7.71c-0.93,2.17-2.33,3.9-4.21,5.17c-1.88,1.27-4.67,1.91-8.36,1.91H91.61z
				 M95.44,86.32h4.5c2.68,0,4.7-0.4,6.07-1.18c1.37-0.79,2.41-2.03,3.14-3.71c0.72-1.69,1.09-3.8,1.09-6.35
				c0-2.55-0.33-4.75-0.99-6.59c-0.66-1.84-1.67-3.19-3.03-4.06c-1.36-0.87-3.48-1.31-6.37-1.31h-4.41V86.32z"/>
			<path class="st1" d="M130.2,90.43c-3.67,0-6.67-1.35-8.99-4.05c-2.32-2.7-3.48-6.54-3.48-11.52c0-4.99,1.15-8.82,3.48-11.52
				c2.32-2.69,5.31-4.04,8.99-4.04c3.67,0,6.67,1.35,9,4.04c2.32,2.7,3.49,6.53,3.49,11.52c0,4.98-1.16,8.82-3.49,11.52
				C136.87,89.08,133.87,90.43,130.2,90.43z M130.2,87.48c2.67,0,4.76-1.15,6.27-3.46c1.5-2.3,2.26-5.36,2.26-9.17
				c0-3.79-0.75-6.85-2.26-9.16c-1.5-2.31-3.59-3.47-6.27-3.47c-2.66,0-4.75,1.16-6.25,3.47c-1.5,2.31-2.25,5.37-2.25,9.16
				c0,3.81,0.75,6.86,2.25,9.17C125.45,86.33,127.53,87.48,130.2,87.48z"/>
		</g>
		<g>
			<path class="st1" d="M20.32,121.3h-3.41V95.19h8.08c1.98,0,3.47,0.29,4.47,0.85c1.01,0.57,1.8,1.4,2.38,2.48
				c0.58,1.09,0.87,2.26,0.87,3.53c0,1.02-0.2,2-0.59,2.93c-0.39,0.93-0.95,1.78-1.66,2.54c-0.71,0.76-1.82,1.43-3.31,2.03
				c0.57,0.31,0.99,0.61,1.27,0.9c0.28,0.28,0.62,0.74,1.02,1.37c0.41,0.63,0.76,1.22,1.07,1.76l4.16,7.73h-3.89l-3.62-6.87
				c-0.87-1.66-2.01-3.11-3.41-4.36h-3.43V121.3z M20.32,107.48h3.32c1.4,0,2.46-0.22,3.18-0.65c0.72-0.43,1.3-1.06,1.72-1.88
				c0.42-0.83,0.64-1.71,0.64-2.66c0-0.82-0.17-1.55-0.5-2.2c-0.34-0.65-0.83-1.19-1.48-1.63c-0.65-0.43-1.75-0.65-3.31-0.65h-3.56
				V107.48z"/>
			<path class="st1" d="M38.99,121.3h-3.15l10.7-26.12h3.43l9.88,26.12h-3.67l-2.71-7.19H41.96L38.99,121.3z M42.98,111.52h9.49
				l-4.58-12.13L42.98,111.52z"/>
			<path class="st1" d="M66.25,121.3h-3.41V95.19h3.41V121.3z"/>
			<path class="st1" d="M74.33,121.3h-3.14V95.19h3.38l11.92,18.56l1.09,2.06l-0.07-2.05V95.19h3.14v26.12h-3.33l-11.95-18.64
				l-1.1-2.1l0.07,2.1V121.3z"/>
			<path class="st1" d="M99.02,121.3h-3.41V95.19h3.41v11.63h12V95.19h3.41v26.12h-3.41v-11.89h-12V121.3z"/>
			<path class="st1" d="M120.58,121.3h-3.15l10.7-26.12h3.43l9.88,26.12h-3.67l-2.71-7.19h-11.53L120.58,121.3z M124.56,111.52h9.49
				l-4.58-12.13L124.56,111.52z"/>
		</g>
		<g>
			<path class="st1" d="M16.91,145.85v-19.42h5.37c2.61,0,4.52,0.36,5.73,1.06c1.21,0.71,2.16,1.79,2.84,3.25
				c0.68,1.46,1.02,3.23,1.02,5.32c0,1.96-0.31,3.66-0.92,5.1c-0.61,1.44-1.54,2.58-2.79,3.43c-1.25,0.84-3.09,1.26-5.53,1.26H16.91
				z M19.45,143.72h2.98c1.77,0,3.11-0.26,4.01-0.78c0.91-0.52,1.6-1.34,2.08-2.46c0.48-1.11,0.72-2.51,0.72-4.2
				c0-1.69-0.22-3.14-0.66-4.36c-0.44-1.21-1.1-2.11-2-2.68c-0.9-0.57-2.3-0.87-4.22-0.87h-2.92V143.72z"/>
			<path class="st1" d="M36.53,145.85h-3.31v-3.3h3.31V145.85z"/>
			<path class="st1" d="M43.69,145.85v-19.42h2.53v17.29h10.19v2.13H43.69z"/>
			<path class="st1" d="M58.65,145.85v-19.42h10.98v2.13h-8.45v6.14h7.38v1.93h-7.38v7.08h9.13v2.13H58.65z"/>
			<path class="st1" d="M80.97,146.44c-2.43,0-4.41-0.89-5.95-2.68c-1.53-1.78-2.3-4.32-2.3-7.62c0-3.29,0.77-5.83,2.3-7.62
				c1.54-1.78,3.52-2.67,5.95-2.67c2.43,0,4.41,0.89,5.95,2.67c1.54,1.78,2.31,4.32,2.31,7.62c0,3.3-0.77,5.84-2.31,7.62
				C85.38,145.55,83.4,146.44,80.97,146.44z M80.97,144.49c1.77,0,3.15-0.76,4.14-2.29c1-1.53,1.49-3.55,1.49-6.06
				c0-2.51-0.5-4.53-1.49-6.06c-1-1.53-2.38-2.29-4.14-2.29c-1.76,0-3.14,0.76-4.13,2.29c-0.99,1.53-1.49,3.55-1.49,6.06
				c0,2.52,0.5,4.54,1.49,6.06C77.83,143.73,79.21,144.49,80.97,144.49z"/>
			<path class="st1" d="M94.56,145.85h-2.33v-19.42h2.51l8.86,13.81l0.81,1.53l-0.05-1.52v-13.82h2.33v19.42h-2.48l-8.88-13.86
				l-0.82-1.56l0.05,1.56V145.85z"/>
			<path class="st1" d="M117.95,146.44c-2.43,0-4.41-0.89-5.95-2.68c-1.53-1.78-2.3-4.32-2.3-7.62c0-3.29,0.77-5.83,2.3-7.62
				c1.54-1.78,3.52-2.67,5.95-2.67c2.43,0,4.41,0.89,5.95,2.67c1.54,1.78,2.3,4.32,2.3,7.62c0,3.3-0.77,5.84-2.3,7.62
				C122.36,145.55,120.38,146.44,117.95,146.44z M117.95,144.49c1.77,0,3.15-0.76,4.14-2.29c0.99-1.53,1.49-3.55,1.49-6.06
				c0-2.51-0.5-4.53-1.49-6.06c-1-1.53-2.38-2.29-4.14-2.29c-1.76,0-3.14,0.76-4.13,2.29c-1,1.53-1.49,3.55-1.49,6.06
				c0,2.52,0.5,4.54,1.49,6.06C114.81,143.73,116.19,144.49,117.95,144.49z"/>
			<path class="st1" d="M131.74,145.85h-2.53v-19.42h6.01c1.48,0,2.58,0.21,3.33,0.64c0.74,0.42,1.33,1.04,1.77,1.85
				c0.43,0.81,0.65,1.68,0.65,2.62c0,0.76-0.15,1.49-0.44,2.18c-0.3,0.69-0.71,1.32-1.24,1.89c-0.53,0.57-1.35,1.07-2.46,1.51
				c0.42,0.23,0.74,0.45,0.94,0.66c0.21,0.21,0.46,0.55,0.76,1.02c0.3,0.47,0.57,0.91,0.79,1.31l3.09,5.74h-2.89l-2.69-5.1
				c-0.64-1.23-1.49-2.32-2.53-3.25h-2.55V145.85z M131.74,135.57h2.47c1.04,0,1.83-0.16,2.37-0.48c0.53-0.32,0.96-0.79,1.28-1.4
				c0.32-0.62,0.48-1.27,0.48-1.98c0-0.61-0.13-1.15-0.38-1.63c-0.25-0.48-0.62-0.88-1.1-1.2c-0.48-0.33-1.3-0.49-2.47-0.49h-2.65
				V135.57z"/>
		</g>
	</g>
</g>
</svg>
