<svg width="46" height="19" viewBox="0 0 46 19" fill="none" xmlns="http://www.w3.org/2000/svg">
  <path fill-rule="evenodd" clip-rule="evenodd" d="M0 10.1805C4.04617 10.1805 6.40244 12.197 7.78747 14.2414C8.48826 15.2758 8.937 16.3169 9.21011 17.1026C9.34613 17.4939 9.4371 17.8175 9.49331 18.0394C9.52139 18.1502 9.5407 18.2353 9.55256 18.2903C9.55849 18.3177 9.56255 18.3377 9.5649 18.3495L9.56715 18.361C9.56708 18.3606 9.567 18.3602 10.5507 18.1805C11.5344 18.0008 11.5344 18.0003 11.5343 17.9998L11.534 17.9986L11.5335 17.9955L11.5318 17.9868L11.5266 17.9599C11.5222 17.9377 11.5159 17.9071 11.5076 17.8686C11.491 17.7918 11.4663 17.6835 11.4321 17.5482C11.3636 17.2779 11.2565 16.8984 11.0992 16.4459C10.7858 15.5441 10.2668 14.3352 9.44326 13.1196C8.74006 12.0817 7.81258 11.0388 6.609 10.1805H6.6169H6.68914H6.76135H6.83353H6.90568H6.97779H7.04987H7.12192H7.19393H7.2659H7.33784H7.40974H7.48161H7.55343H7.62522H7.69697H7.76867H7.84034H7.91196H7.98354H8.05508H8.12657H8.19802H8.26943H8.34078H8.4121H8.48336H8.55458H8.62575H8.69687H8.76793H8.83895H8.90992H8.98084H9.0517H9.12251H9.19327H9.26397H9.33462H9.40521H9.47574H9.54622H9.61664H9.687H9.7573H9.82754H9.89772H9.96784H10.0379H10.1079H10.1778H10.2477H10.3175H10.3872H10.4569H10.5265H10.5961H10.6655H10.7349H10.8043H10.8735H10.9427H11.0118H11.0809H11.1499H11.2188H11.2876H11.3563H11.425H11.4936H11.5621H11.6306H11.699H11.7673H11.8355H11.9036H11.9717H12.0396H12.1075H12.1753H12.243H12.3107H12.3782H12.4457H12.5131H12.5804H12.6476H12.7147H12.7817H12.8487H12.9155H12.9823H13.049H13.1155H13.182H13.2484H13.3147H13.3809H13.447H13.513H13.5789H13.6448H13.7105H13.7761H13.8416H13.907H13.9724H14.0376H14.1027H14.1677H14.2326H14.2974H14.3621H14.4267H14.4912H14.5556H14.6198H14.684H14.7481H14.812H14.8759H14.9396H15.0032H15.0667H15.1301H15.1934H15.2565H15.3196H15.3825H15.4453H15.508H15.5706H15.633H15.6954H15.7576H15.8197H15.8817H15.9436H16.0053H16.0669H16.1284H16.1898H16.251H16.3121H16.3731H16.434H16.4947H16.5553H16.6158H16.6761H16.7364H16.7965H16.8564H16.9162H16.9759H17.0355H17.0949H17.1542H17.2133H17.2723H17.3312H17.39H17.4486H17.507H17.5653H17.6235H17.6816H17.7395H17.7972H17.8548H17.9123H17.9696H18.0268H18.0838H18.1407H18.1975H18.2541H18.3105H18.3668H18.423H18.4789H18.5348H18.5905H18.646H18.7014H18.7566H18.8117H18.8666H18.9214H18.976H19.0305H19.0848H19.1389H19.1929H19.2467H19.3004H19.3538H19.4072H19.4604H19.5134H19.5662H19.6189H19.6714H19.7237H19.7759H19.8279H19.8798H19.9315H19.983H20.0002H20.0006H20.0014H20.0025H20.0039H20.0056H20.0076H20.01H20.0126H20.0155H20.0188H20.0223H20.0262H20.0304H20.0343H20.0348H20.0396H20.0447H20.05H20.0557H20.0617H20.068H20.0745H20.0814H20.0855H20.0886H20.096H20.1038H20.1118H20.1202H20.1288H20.1365H20.1378H20.147H20.1565H20.1664H20.1765H20.1869H20.1873H20.1975H20.2085H20.2198H20.2313H20.238H20.2432H20.2553H20.2677H20.2804H20.2884H20.2934H20.3066H20.3202H20.334H20.3387H20.3481H20.3625H20.3771H20.3889H20.3921H20.4073H20.4228H20.4386H20.4388H20.4546H20.471H20.4876H20.4886H20.5045H20.5216H20.5382H20.5391H20.5568H20.5747H20.5876H20.593H20.6115H20.6303H20.6369H20.6493H20.6687H20.6859H20.6882H20.7081H20.7282H20.7348H20.7486H20.7693H20.7835H20.7902H20.8114H20.8321H20.8328H20.8545H20.8765H20.8804H20.8988H20.9212H20.9286H20.944H20.967H20.9766H20.9903H21.0138H21.0244H21.0376H21.0616H21.072H21.0859H21.1105H21.1194H21.1353H21.1604H21.1666H21.1857H21.2113H21.2137H21.2371H21.2606H21.2631H21.2895H21.3073H21.316H21.3429H21.3538H21.3699H21.3973H21.4001H21.4248H21.4462H21.4526H21.4807H21.4921H21.509H21.5375H21.5378H21.5663H21.5834H21.5954H21.6246H21.6287H21.6542H21.6739H21.6839H21.7139H21.7189H21.7441H21.7636H21.7746H21.8053H21.8082H21.8363H21.8526H21.8675H21.8968H21.8989H21.9306H21.9408H21.9625H21.9846H21.9946H22.027H22.0282H22.0596H22.0716H22.0924H22.1148H22.1255H22.1578H22.1588H22.1923H22.2006H22.226H22.2431H22.26H22.2855H22.2942H22.3277H22.3287H22.3633H22.3697H22.3982H22.4115H22.4334H22.4531H22.4687H22.4944H22.5043H22.5356H22.5401H22.5761H22.5766H22.6123H22.6173H22.6488H22.6579H22.6854H22.6982H22.7223H22.7383H22.7595H22.7782H22.7968H22.8179H22.8344H22.8574H22.8721H22.8967H22.9101H22.9358H22.9483H22.9746H22.9868H23.0132H23.0254H23.0517H23.0642H23.0899H23.1033H23.1279H23.1426H23.1656H23.1821H23.2032H23.2218H23.2405H23.2617H23.2777H23.3018H23.3146H23.3421H23.3512H23.3827H23.3877H23.4234H23.4239H23.4599H23.4644H23.4957H23.5056H23.5313H23.5469H23.5666H23.5885H23.6018H23.6303H23.6367H23.6713H23.6723H23.7058H23.7145H23.74H23.7569H23.774H23.7994H23.8077H23.8412H23.8422H23.8745H23.8852H23.9076H23.9284H23.9404H23.9718H23.973H24.0054H24.0154H24.0375H24.0592H24.0694H24.1011H24.1032H24.1325H24.1474H24.1637H24.1918H24.1947H24.2254H24.2364H24.2559H24.2811H24.2861H24.3161H24.3261H24.3458H24.3713H24.3754H24.4046H24.4166H24.4337H24.4622H24.4625H24.491H24.5079H24.5193H24.5474H24.5538H24.5752H24.5999H24.6027H24.6301H24.6462H24.6571H24.684H24.6927H24.7105H24.7369H24.7394H24.7629H24.7863H24.7887H24.8143H24.8334H24.8396H24.8647H24.8806H24.8895H24.9141H24.928H24.9384H24.9624H24.9756H24.9862H25.0097H25.0234H25.033H25.056H25.0714H25.0788H25.1012H25.1196H25.1235H25.1455H25.1672H25.1679H25.1886H25.2098H25.2165H25.2307H25.2514H25.2652H25.2718H25.2919H25.3118H25.3141H25.3313H25.3507H25.3631H25.3697H25.3885H25.407H25.4124H25.4253H25.4432H25.4609H25.4618H25.4784H25.4955H25.5114H25.5124H25.529H25.5454H25.5612H25.5614H25.5772H25.5927H25.6079H25.6111H25.6229H25.6375H25.6519H25.6613H25.666H25.6798H25.6934H25.7066H25.7116H25.7196H25.7323H25.7447H25.7568H25.762H25.7687H25.7802H25.7915H25.8025H25.8127H25.8131H25.8235H25.8336H25.8435H25.853H25.8622H25.8635H25.8712H25.8798H25.8882H25.8962H25.904H25.9114H25.9145H25.9186H25.9255H25.932H25.9383H25.9443H25.95H25.9553H25.9604H25.9652H25.9657H25.9696H25.9738H25.9777H25.9812H25.9845H25.9874H25.99H25.9924H25.9944H25.9961H25.9975H25.9986H25.9994H25.9998H26.017H26.0685H26.1202H26.1721H26.2241H26.2763H26.3286H26.3811H26.4338H26.4866H26.5396H26.5928H26.6462H26.6996H26.7533H26.8071H26.8611H26.9152H26.9695H27.024H27.0786H27.1334H27.1883H27.2434H27.2986H27.354H27.4095H27.4652H27.5211H27.577H27.6332H27.6895H27.7459H27.8025H27.8593H27.9162H27.9732H28.0304H28.0877H28.1452H28.2028H28.2605H28.3184H28.3765H28.4347H28.493H28.5514H28.61H28.6688H28.7277H28.7867H28.8458H28.9051H28.9645H29.0241H29.0838H29.1436H29.2035H29.2636H29.3239H29.3842H29.4447H29.5053H29.566H29.6269H29.6879H29.749H29.8102H29.8716H29.9331H29.9947H30.0564H30.1183H30.1803H30.2424H30.3046H30.367H30.4294H30.492H30.5547H30.6175H30.6804H30.7435H30.8066H30.8699H30.9333H30.9968H31.0604H31.1241H31.188H31.2519H31.316H31.3801H31.4444H31.5088H31.5733H31.6379H31.7026H31.7674H31.8323H31.8973H31.9624H32.0276H32.093H32.1584H32.2239H32.2895H32.3552H32.4211H32.487H32.553H32.6191H32.6853H32.7516H32.818H32.8845H32.951H33.0177H33.0845H33.1513H33.2183H33.2853H33.3524H33.4196H33.4869H33.5543H33.6218H33.6893H33.757H33.8247H33.8925H33.9604H34.0283H34.0964H34.1645H34.2327H34.301H34.3694H34.4379H34.5064H34.575H34.6437H34.7124H34.7812H34.8501H34.9191H34.9882H35.0573H35.1265H35.1957H35.2651H35.3345H35.4039H35.4735H35.5431H35.6128H35.6825H35.7523H35.8222H35.8921H35.9621H36.0322H36.1023H36.1725H36.2427H36.313H36.3834H36.4538H36.5243H36.5948H36.6654H36.736H36.8067H36.8775H36.9483H37.0192H37.0901H37.161H37.2321H37.3031H37.3743H37.4454H37.5166H37.5879H37.6592H37.7306H37.802H37.8734H37.9449H38.0165H38.088H38.1597H38.2313H38.303H38.3748H38.4466H38.5184H38.5903H38.6622H38.7341H38.8061H38.8781H38.9501H39.0222H39.0943H39.1665H39.2386H39.3109H39.3831H39.391C38.1874 11.0388 37.2599 12.0817 36.5567 13.1196C35.7332 14.3352 35.2142 15.5441 34.9008 16.4459C34.7435 16.8984 34.6364 17.2779 34.5679 17.5482C34.5337 17.6835 34.509 17.7918 34.4924 17.8686C34.4841 17.9071 34.4778 17.9377 34.4734 17.9599L34.4682 17.9868L34.4665 17.9955L34.466 17.9986L34.4657 17.9998C34.4656 18.0003 34.4656 18.0008 35.4493 18.1805C36.433 18.3602 36.4329 18.3606 36.4328 18.361L36.4351 18.3495C36.4375 18.3377 36.4415 18.3177 36.4474 18.2903C36.4593 18.2353 36.4786 18.1502 36.5067 18.0394C36.5629 17.8175 36.6539 17.4939 36.7899 17.1026C37.063 16.3169 37.5117 15.2758 38.2125 14.2414C39.5976 12.197 41.9538 10.1805 46 10.1805V8.18052C41.9538 8.18052 39.5976 6.164 38.2125 4.11963C37.5117 3.08524 37.063 2.04411 36.7899 1.25843C36.6539 0.86714 36.5629 0.543501 36.5067 0.321636C36.4786 0.210823 36.4593 0.125769 36.4474 0.0707779C36.4415 0.043293 36.4375 0.0233555 36.4351 0.011507L36.4328 0C36.4329 0.000391006 36.433 0.000818253 35.4493 0.180517C34.4656 0.360216 34.4656 0.360712 34.4657 0.36124L34.466 0.362474L34.4665 0.365561L34.4682 0.374201L34.4734 0.401163C34.4778 0.423372 34.4841 0.453972 34.4924 0.492405C34.509 0.56925 34.5337 0.677555 34.5679 0.812836C34.6364 1.08316 34.7435 1.46264 34.9008 1.91511C35.2142 2.81693 35.7332 4.02579 36.5567 5.2414C37.2599 6.27935 38.1874 7.32226 39.391 8.18052H39.3831H39.3109H39.2386H39.1665H39.0943H39.0222H38.9501H38.8781H38.8061H38.7341H38.6622H38.5903H38.5184H38.4466H38.3748H38.303H38.2313H38.1597H38.088H38.0165H37.9449H37.8734H37.802H37.7306H37.6592H37.5879H37.5166H37.4454H37.3743H37.3031H37.2321H37.161H37.0901H37.0192H36.9483H36.8775H36.8067H36.736H36.6654H36.5948H36.5243H36.4538H36.3834H36.313H36.2427H36.1725H36.1023H36.0322H35.9621H35.8921H35.8222H35.7523H35.6825H35.6128H35.5431H35.4735H35.4039H35.3345H35.2651H35.1957H35.1265H35.0573H34.9882H34.9191H34.8501H34.7812H34.7124H34.6437H34.575H34.5064H34.4379H34.3694H34.301H34.2327H34.1645H34.0964H34.0283H33.9604H33.8925H33.8247H33.757H33.6893H33.6218H33.5543H33.4869H33.4196H33.3524H33.2853H33.2183H33.1513H33.0845H33.0177H32.951H32.8845H32.818H32.7516H32.6853H32.6191H32.553H32.487H32.4211H32.3552H32.2895H32.2239H32.1584H32.093H32.0276H31.9624H31.8973H31.8323H31.7674H31.7026H31.6379H31.5733H31.5088H31.4444H31.3801H31.316H31.2519H31.188H31.1241H31.0604H30.9968H30.9333H30.8699H30.8066H30.7435H30.6804H30.6175H30.5547H30.492H30.4294H30.367H30.3046H30.2424H30.1803H30.1183H30.0564H29.9947H29.9331H29.8716H29.8102H29.749H29.6879H29.6269H29.566H29.5053H29.4447H29.3842H29.3239H29.2636H29.2035H29.1436H29.0838H29.0241H28.9645H28.9051H28.8458H28.7867H28.7277H28.6688H28.61H28.5514H28.493H28.4347H28.3765H28.3184H28.2605H28.2028H28.1452H28.0877H28.0304H27.9732H27.9162H27.8593H27.8025H27.7459H27.6895H27.6332H27.577H27.5211H27.4652H27.4095H27.354H27.2986H27.2434H27.1883H27.1334H27.0786H27.024H26.9695H26.9152H26.8611H26.8071H26.7533H26.6996H26.6462H26.5928H26.5396H26.4866H26.4338H26.3811H26.3286H26.2763H26.2241H26.1721H26.1202H26.0685H26.017H25.9998H25.9994H25.9986H25.9975H25.9961H25.9944H25.9924H25.99H25.9874H25.9845H25.9812H25.9777H25.9738H25.9696H25.9657H25.9652H25.9604H25.9553H25.95H25.9443H25.9383H25.932H25.9255H25.9186H25.9145H25.9114H25.904H25.8962H25.8882H25.8798H25.8712H25.8635H25.8622H25.853H25.8435H25.8336H25.8235H25.8131H25.8127H25.8025H25.7915H25.7802H25.7687H25.762H25.7568H25.7447H25.7323H25.7196H25.7116H25.7066H25.6934H25.6798H25.666H25.6613H25.6519H25.6375H25.6229H25.6111H25.6079H25.5927H25.5772H25.5614H25.5612H25.5454H25.529H25.5124H25.5114H25.4955H25.4784H25.4618H25.4609H25.4432H25.4253H25.4124H25.407H25.3885H25.3697H25.3631H25.3507H25.3313H25.3141H25.3118H25.2919H25.2718H25.2652H25.2514H25.2307H25.2165H25.2098H25.1886H25.1679H25.1672H25.1455H25.1235H25.1196H25.1012H25.0788H25.0714H25.056H25.033H25.0234H25.0097H24.9862H24.9756H24.9624H24.9384H24.928H24.9141H24.8895H24.8806H24.8647H24.8396H24.8334H24.8143H24.7887H24.7863H24.7629H24.7394H24.7369H24.7105H24.6927H24.684H24.6571H24.6462H24.6301H24.6027H24.5999H24.5752H24.5538H24.5474H24.5193H24.5079H24.491H24.4625H24.4622H24.4337H24.4166H24.4046H24.3754H24.3713H24.3458H24.3261H24.3161H24.2861H24.2811H24.2559H24.2364H24.2254H24.1947H24.1918H24.1637H24.1474H24.1325H24.1032H24.1011H24.0694H24.0592H24.0375H24.0154H24.0054H23.973H23.9718H23.9404H23.9284H23.9076H23.8852H23.8745H23.8422H23.8412H23.8077H23.7994H23.774H23.7569H23.74H23.7145H23.7058H23.6723H23.6713H23.6367H23.6303H23.6018H23.5885H23.5666H23.5469H23.5313H23.5056H23.4957H23.4644H23.4599H23.4239H23.4234H23.3877H23.3827H23.3512H23.3421H23.3146H23.3018H23.2777H23.2617H23.2405H23.2218H23.2032H23.1821H23.1656H23.1426H23.1279H23.1033H23.0899H23.0642H23.0517H23.0254H23.0132H22.9868H22.9746H22.9483H22.9358H22.9101H22.8967H22.8721H22.8574H22.8344H22.8179H22.7968H22.7782H22.7595H22.7383H22.7223H22.6982H22.6854H22.6579H22.6488H22.6173H22.6123H22.5766H22.5761H22.5401H22.5356H22.5043H22.4944H22.4687H22.4531H22.4334H22.4115H22.3982H22.3697H22.3633H22.3287H22.3277H22.2942H22.2855H22.26H22.2431H22.226H22.2006H22.1923H22.1588H22.1578H22.1255H22.1148H22.0924H22.0716H22.0596H22.0282H22.027H21.9946H21.9846H21.9625H21.9408H21.9306H21.8989H21.8968H21.8675H21.8526H21.8363H21.8082H21.8053H21.7746H21.7636H21.7441H21.7189H21.7139H21.6839H21.6739H21.6542H21.6287H21.6246H21.5954H21.5834H21.5663H21.5378H21.5375H21.509H21.4921H21.4807H21.4526H21.4462H21.4248H21.4001H21.3973H21.3699H21.3538H21.3429H21.316H21.3073H21.2895H21.2631H21.2606H21.2371H21.2137H21.2113H21.1857H21.1666H21.1604H21.1353H21.1194H21.1105H21.0859H21.072H21.0616H21.0376H21.0244H21.0138H20.9903H20.9766H20.967H20.944H20.9286H20.9212H20.8988H20.8804H20.8765H20.8545H20.8328H20.8321H20.8114H20.7902H20.7835H20.7693H20.7486H20.7348H20.7282H20.7081H20.6882H20.6859H20.6687H20.6493H20.6369H20.6303H20.6115H20.593H20.5876H20.5747H20.5568H20.5391H20.5382H20.5216H20.5045H20.4886H20.4876H20.471H20.4546H20.4388H20.4386H20.4228H20.4073H20.3921H20.3889H20.3771H20.3625H20.3481H20.3387H20.334H20.3202H20.3066H20.2934H20.2884H20.2804H20.2677H20.2553H20.2432H20.238H20.2313H20.2198H20.2085H20.1975H20.1873H20.1869H20.1765H20.1664H20.1565H20.147H20.1378H20.1365H20.1288H20.1202H20.1118H20.1038H20.096H20.0886H20.0855H20.0814H20.0745H20.068H20.0617H20.0557H20.05H20.0447H20.0396H20.0348H20.0343H20.0304H20.0262H20.0223H20.0188H20.0155H20.0126H20.01H20.0076H20.0056H20.0039H20.0025H20.0014H20.0006H20.0002H19.983H19.9315H19.8798H19.8279H19.7759H19.7237H19.6714H19.6189H19.5662H19.5134H19.4604H19.4072H19.3538H19.3004H19.2467H19.1929H19.1389H19.0848H19.0305H18.976H18.9214H18.8666H18.8117H18.7566H18.7014H18.646H18.5905H18.5348H18.4789H18.423H18.3668H18.3105H18.2541H18.1975H18.1407H18.0838H18.0268H17.9696H17.9123H17.8548H17.7972H17.7395H17.6816H17.6235H17.5653H17.507H17.4486H17.39H17.3312H17.2723H17.2133H17.1542H17.0949H17.0355H16.9759H16.9162H16.8564H16.7965H16.7364H16.6761H16.6158H16.5553H16.4947H16.434H16.3731H16.3121H16.251H16.1898H16.1284H16.0669H16.0053H15.9436H15.8817H15.8197H15.7576H15.6954H15.633H15.5706H15.508H15.4453H15.3825H15.3196H15.2565H15.1934H15.1301H15.0667H15.0032H14.9396H14.8759H14.812H14.7481H14.684H14.6198H14.5556H14.4912H14.4267H14.3621H14.2974H14.2326H14.1677H14.1027H14.0376H13.9724H13.907H13.8416H13.7761H13.7105H13.6448H13.5789H13.513H13.447H13.3809H13.3147H13.2484H13.182H13.1155H13.049H12.9823H12.9155H12.8487H12.7817H12.7147H12.6476H12.5804H12.5131H12.4457H12.3782H12.3107H12.243H12.1753H12.1075H12.0396H11.9717H11.9036H11.8355H11.7673H11.699H11.6306H11.5621H11.4936H11.425H11.3563H11.2876H11.2188H11.1499H11.0809H11.0118H10.9427H10.8735H10.8043H10.7349H10.6655H10.5961H10.5265H10.4569H10.3872H10.3175H10.2477H10.1778H10.1079H10.0379H9.96784H9.89772H9.82754H9.7573H9.687H9.61664H9.54622H9.47574H9.40521H9.33462H9.26397H9.19327H9.12251H9.0517H8.98084H8.90992H8.83895H8.76793H8.69687H8.62575H8.55458H8.48336H8.4121H8.34078H8.26943H8.19802H8.12657H8.05508H7.98354H7.91196H7.84034H7.76867H7.69697H7.62522H7.55343H7.48161H7.40974H7.33784H7.2659H7.19393H7.12192H7.04987H6.97779H6.90568H6.83353H6.76135H6.68914H6.6169H6.609C7.81258 7.32226 8.74006 6.27935 9.44326 5.2414C10.2668 4.02579 10.7858 2.81693 11.0992 1.91511C11.2565 1.46264 11.3636 1.08316 11.4321 0.812836C11.4663 0.677555 11.491 0.56925 11.5076 0.492405C11.5159 0.453972 11.5222 0.423372 11.5266 0.401163L11.5318 0.374201L11.5335 0.365561L11.534 0.362474L11.5343 0.36124C11.5344 0.360712 11.5344 0.360216 10.5507 0.180517C9.567 0.000818253 9.56708 0.000391006 9.56715 0L9.5649 0.011507C9.56255 0.0233555 9.55849 0.043293 9.55256 0.0707779C9.5407 0.125769 9.52139 0.210823 9.49331 0.321636C9.4371 0.543501 9.34613 0.86714 9.21011 1.25843C8.937 2.04411 8.48826 3.08524 7.78747 4.11963C6.40244 6.164 4.04617 8.18052 0 8.18052V10.1805Z" fill="black"></path>
  </svg>